<?xml version="1.0" encoding="UTF-8" standalone="no"?>
<!DOCTYPE svg PUBLIC "-//W3C//DTD SVG 1.1//EN" "http://www.w3.org/Graphics/SVG/1.1/DTD/svg11.dtd">
<svg width="100%" height="100%" viewBox="0 0 180 180" version="1.1" xmlns="http://www.w3.org/2000/svg" xmlns:xlink="http://www.w3.org/1999/xlink" xml:space="preserve" xmlns:serif="http://www.serif.com/" style="fill-rule:evenodd;clip-rule:evenodd;stroke-linejoin:round;stroke-miterlimit:2;">
    <rect x="0" y="0" width="180" height="180" style="fill:rgb(218,218,219);"/>
    <g>
        <g transform="matrix(0.0736296,0,0,0.0736296,-1.31232,-39.1417)">
            <path d="M590.551,2025.59C427.475,2025.59 295.276,1893.39 295.276,1730.32C295.276,1567.24 427.475,1435.04 590.551,1435.04L590.551,962.598L1889.76,962.598L1889.76,1458.66C2052.84,1458.66 2185.04,1590.86 2185.04,1753.94C2185.04,1917.01 2052.84,2049.21 1889.76,2049.21L1889.76,2545.28L590.551,2545.28L590.551,2025.59ZM1889.76,1606.3C1971.3,1606.3 2037.4,1672.4 2037.4,1753.94C2037.4,1835.48 1971.3,1901.58 1889.76,1901.58L1889.76,1606.3ZM590.551,1582.68C509.013,1582.68 442.913,1648.78 442.913,1730.32C442.913,1811.85 509.013,1877.95 590.551,1877.95L590.551,1582.68ZM1748.03,1104.33L732.283,1104.33L732.283,2403.54L1748.03,2403.54L1748.03,1104.33Z" style="fill:rgb(30,30,30);"/>
        </g>
        <g transform="matrix(0.0455562,0,0,0.0612694,40.6073,95.9324)">
            <rect x="492.442" y="343.18" width="1183.54" height="170.325" style="fill:rgb(30,30,30);"/>
        </g>
        <g transform="matrix(0.0954244,0,0,0.0954244,-25.0695,-67.7218)">
            <circle cx="1032.72" cy="1370.33" r="109.361" style="fill:rgb(30,30,30);"/>
        </g>
        <g transform="matrix(0.0393214,-0.0393214,0.043324,0.043324,28.8096,103.64)">
            <rect x="492.442" y="343.18" width="1183.54" height="170.325" style="fill:rgb(30,30,30);"/>
        </g>
        <g transform="matrix(0.0954244,0,0,0.0954244,7.97685,-34.6754)">
            <circle cx="1032.72" cy="1370.33" r="109.361" style="fill:rgb(30,30,30);"/>
        </g>
    </g>
</svg>
